<svg width="1411" height="1411" viewBox="0 0 1411 1411" fill="none" xmlns="http://www.w3.org/2000/svg">
<g clip-path="url(#clip0_6_81)">
<rect width="1411" height="1411" rx="705.5" fill="#9DE3D6"/>
<path d="M1411 30.1144C1410.09 19.1619 1406.55 10.9525 1400.38 5.48633C1397.64 3.05131 1394.76 1.8338 1391.75 1.8338C864.93 1.67213 408.987 1.64182 23.92 1.74286C18.3933 1.74286 15.1167 1.88937 14.09 2.18238C8.5 3.74342 2.26 9.66932 0 17.7776" stroke="#CEF1EB" stroke-width="2"/>
<path d="M1411 1388.24C1409.54 1399.95 1405.93 1407.53 1400.17 1411" stroke="#CEF1EB" stroke-width="2"/>
<path d="M7.91 1411C3.98333 1408.81 1.34667 1404.75 0 1398.83" stroke="#CEF1EB" stroke-width="2"/>
<path d="M0 0H1411V30.1145C1410.09 19.1619 1406.55 10.9526 1400.38 5.48638C1397.64 3.05136 1394.76 1.83385 1391.75 1.83385C864.93 1.67218 408.987 1.64187 23.92 1.74291C18.3933 1.74291 15.1167 1.88942 14.09 2.18243C8.5 3.74347 2.26 9.66937 0 17.7777V0Z" fill="white"/>
<path d="M1411 1388.24V1411H1400.17C1405.93 1407.53 1409.54 1399.95 1411 1388.24Z" fill="white"/>
<path d="M0 1398.83C1.34667 1404.75 3.98333 1408.81 7.91 1411H0V1398.83Z" fill="white"/>
<path d="M959.372 913.846C955.852 901.016 954.079 889.849 954.031 877.453C953.461 743.067 953.432 615.022 953.947 493.317C953.979 484.933 953.81 477.954 953.44 472.38C952.187 453.31 943.772 431.132 930.245 416.76C924.482 410.641 918.518 405.28 912.354 400.678C901.745 392.763 891.232 384.848 880.9 376.416C862.615 361.478 844.013 346.323 825.093 330.951C811.603 320.001 796.533 312.833 779.027 312.05C761.848 311.279 743.945 319.555 730.309 330.084C702.299 351.72 674.298 373.348 646.304 394.968C640.722 399.268 635.212 403.123 628.051 398.991C626.026 397.827 624.081 396.445 622.216 394.847C596.722 372.962 570.986 350.848 545.01 328.506C537.089 321.687 528.578 315.905 518.439 313.507C512.941 312.206 507.821 312.134 503.079 313.291C495.564 315.122 488.556 318.981 482.054 324.868C462.909 342.191 445.44 361.225 428.477 378.933C416.433 391.51 404.824 404.581 393.045 417.206C389.259 421.254 384.136 427.831 385.124 433.626C386.33 440.697 390.875 443.805 396.529 446.998C405.45 452.017 415.485 457.434 426.633 463.249C440.726 470.597 453.988 481.21 459.642 496.353C462.817 504.85 464.416 513.508 464.44 522.326C464.754 610.709 465.147 702.257 465.622 796.968C465.871 847.436 465.774 897.848 465.332 948.203C465.26 955.925 465.754 963.539 467.346 971.02C470.046 983.729 479.715 996.414 490.095 1004.17C509.035 1018.32 528.59 1032.33 547.505 1046.85C560.052 1056.49 572.594 1066.01 585.132 1075.42C591.248 1080 598.723 1083.74 607.556 1086.63C619.431 1090.51 632.114 1090.03 643.748 1085.99C652.267 1083.04 659.605 1079.02 665.762 1073.95C688.725 1055 715.32 1032.9 745.548 1007.63C748.98 1004.76 752.44 1001.97 755.928 999.258C759.846 996.198 763.873 994.644 768.141 997.812C770.391 999.474 772.574 1001.23 774.687 1003.09C808.613 1032.84 840.207 1059.79 869.471 1083.95C879.043 1091.85 889.351 1098.4 902.034 1097.98C915.042 1097.56 925.664 1088.04 934.115 1079.34C957.278 1055.5 982.226 1029.92 1008.96 1002.62C1013.42 998.053 1017.54 993.174 1021.53 988.235C1025.99 982.741 1028.25 974.995 1022.82 969.189C1018.49 964.539 1012.92 960.491 1007.27 957.672C1000.72 954.387 994.186 950.982 987.667 947.456C974.177 940.168 963.531 929.001 959.372 913.846Z" stroke="#CEF1EB" stroke-width="2"/>
<path d="M881.3 943.392C878.016 938.917 877.259 931.028 877.331 925.685C878.437 843.093 879.243 761.068 879.123 677.849C879.043 629.471 878.369 560.212 877.102 470.073C876.874 453.813 871.232 434.272 859.323 422.39C856.115 419.182 852.586 416.178 848.737 413.38C828.431 398.607 807.135 383.151 784.849 367.012C780.334 363.739 775.947 360.956 771.689 358.664C766.54 355.902 761.452 356.614 757.254 360.534C751.215 366.203 748.352 372.862 750.974 381.306C752.61 386.529 757.675 391.378 762.186 394.924C779.067 408.217 795.531 420.207 811.578 430.894C819.518 436.178 825.099 440.637 828.323 444.272C833.68 450.319 837.397 457.416 839.474 465.562C840.81 470.785 841.122 477.033 841.183 482.437C841.319 494.468 841.359 506.631 841.303 518.926C840.741 639.655 840.473 773.046 840.497 919.099C840.497 935.757 842.109 952.777 852.358 966.444C855.285 970.344 859.636 974.538 865.41 979.025C884.216 993.653 903.398 1008.34 922.958 1023.08C925.665 1025.12 929.249 1027.38 932.582 1027.89C942.698 1029.43 950.926 1014.38 949.916 1005.76C949.298 1000.54 947.173 996.592 943.54 993.898C925.171 980.279 906.767 966.576 889.685 952.017C886.044 948.905 883.249 946.03 881.3 943.392Z" stroke="#CEF1EB" stroke-width="2"/>
<path d="M648.089 1016.86C653.242 1007.08 647.101 1000.35 640.034 994.609C626.678 983.76 613.129 973.015 599.387 962.375C593.263 957.633 589.021 953.468 586.661 949.881C583.073 944.408 581.275 937.917 581.267 930.406C581.203 788.983 581.187 644.295 581.219 496.341C581.231 482.583 580.472 469.764 575.861 457.282C573.148 449.956 569.616 444.387 565.266 440.575C559.037 435.135 550.951 428.531 541.006 420.763C524.92 408.197 509.457 395.976 494.616 384.099C487.982 378.791 479.036 373.291 470.596 377.479C464.396 380.561 457.858 387.446 458.002 394.704C458.083 398.909 459.728 402.371 462.939 405.091C469.633 410.765 477.471 417.012 486.453 423.832C498.926 433.293 511.636 442.846 524.583 452.492C531.277 457.487 537.972 463.18 541.042 470.45C542.984 475.056 543.955 480.862 543.955 487.867C543.947 626.248 543.943 764.605 543.943 902.938C543.943 925.808 539.946 955.093 557.115 972.955C562.011 978.051 568.204 983.608 575.693 989.626C591.441 1002.29 606.631 1014.06 621.264 1024.93C630.498 1031.79 643.128 1026.3 648.089 1016.86Z" stroke="#CEF1EB" stroke-width="2"/>
<path d="M736.085 958.919C752.493 955.427 766.081 943.133 770.75 927.274C771.998 923.004 772.646 916.799 772.694 908.659C773.463 780.171 774.231 650.374 774.999 519.269C775.071 506.634 771.302 496.716 763.692 489.516C743.607 470.515 723.285 455.676 702.728 444.999C693.545 440.219 680.438 438.882 671.939 445.722C652.846 461.07 643.3 481.203 643.3 506.12C643.3 621.596 643.28 737.661 643.24 854.317C643.24 861.71 642.856 869.127 643.06 876.485C643.204 881.815 644.104 888.052 645.76 895.197C648.225 905.793 652.79 915.233 659.456 923.518C666.81 932.669 675.937 940.102 686.835 945.818C692.493 948.78 697.878 951.57 702.992 954.187C713.827 959.734 724.858 961.311 736.085 958.919Z" stroke="#CEF1EB" stroke-width="2"/>
<path d="M954.031 877.453C954.079 889.849 955.852 901.016 959.372 913.846C963.531 929.001 974.177 940.168 987.667 947.456C994.186 950.982 1000.72 954.387 1007.27 957.672C1012.92 960.491 1018.49 964.539 1022.82 969.189C1028.25 974.995 1025.99 982.741 1021.53 988.235C1017.54 993.174 1013.42 998.053 1008.96 1002.62C982.226 1029.92 957.278 1055.5 934.115 1079.34C925.664 1088.04 915.042 1097.56 902.034 1097.98C889.351 1098.4 879.043 1091.85 869.471 1083.95C840.207 1059.79 808.613 1032.84 774.687 1003.09C772.574 1001.23 770.391 999.474 768.141 997.812C763.873 994.644 759.846 996.198 755.928 999.258C752.44 1001.97 748.98 1004.76 745.548 1007.63C715.32 1032.9 688.725 1055 665.762 1073.95C659.605 1079.02 652.267 1083.04 643.748 1085.99C632.114 1090.03 619.431 1090.51 607.556 1086.63C598.723 1083.74 591.248 1080 585.132 1075.42C572.594 1066.01 560.052 1056.49 547.505 1046.85C528.59 1032.33 509.035 1018.32 490.095 1004.17C479.715 996.414 470.046 983.729 467.346 971.02C465.754 963.539 465.26 955.925 465.332 948.203C465.774 897.848 465.871 847.436 465.622 796.968C465.147 702.257 464.754 610.709 464.44 522.326C464.416 513.508 462.817 504.85 459.642 496.353C453.988 481.21 440.726 470.597 426.633 463.249C415.485 457.434 405.45 452.017 396.529 446.998C390.875 443.805 386.33 440.697 385.124 433.626C384.136 427.831 389.259 421.254 393.045 417.206C404.824 404.581 416.433 391.51 428.477 378.933C445.44 361.225 462.909 342.191 482.054 324.868C488.556 318.981 495.564 315.122 503.079 313.291C507.821 312.134 512.941 312.206 518.439 313.507C528.578 315.905 537.089 321.687 545.01 328.506C570.986 350.848 596.722 372.962 622.216 394.847C624.081 396.445 626.026 397.827 628.051 398.991C635.212 403.123 640.722 399.268 646.304 394.968C674.298 373.348 702.299 351.72 730.309 330.084C743.945 319.555 761.848 311.279 779.027 312.05C796.533 312.833 811.603 320.001 825.093 330.951C844.013 346.323 862.615 361.478 880.9 376.416C891.232 384.848 901.745 392.763 912.354 400.678C918.518 405.28 924.482 410.641 930.245 416.76C943.772 431.132 952.187 453.31 953.44 472.38C953.81 477.954 953.979 484.933 953.947 493.317C953.432 615.022 953.461 743.067 954.031 877.453ZM881.322 942.602C878.031 938.132 877.271 930.254 877.343 924.917C878.453 842.433 879.26 760.515 879.14 677.404C879.059 629.089 878.384 559.92 877.114 469.899C876.885 453.66 871.231 434.144 859.296 422.278C856.081 419.073 852.544 416.074 848.687 413.279C828.336 398.526 806.993 383.09 784.658 366.971C780.133 363.702 775.736 360.924 771.468 358.635C766.308 355.876 761.209 356.587 757.001 360.502C750.949 366.164 748.08 372.814 750.708 381.246C752.348 386.463 757.423 391.305 761.944 394.847C778.863 408.123 795.363 420.097 811.446 430.771C819.403 436.047 824.997 440.5 828.228 444.131C833.597 450.17 837.322 457.258 839.404 465.393C840.742 470.609 841.055 476.85 841.115 482.247C841.252 494.261 841.292 506.408 841.236 518.688C840.673 639.26 840.404 772.477 840.428 918.339C840.428 934.976 842.044 951.974 852.315 965.623C855.249 969.518 859.609 973.706 865.396 978.188C884.244 992.796 903.469 1007.46 923.072 1022.18C925.784 1024.22 929.377 1026.48 932.716 1026.99C942.855 1028.53 951.102 1013.5 950.089 1004.88C949.47 999.679 947.34 995.732 943.699 993.041C925.29 979.441 906.844 965.755 889.725 951.215C886.076 948.107 883.275 945.236 881.322 942.602ZM648.655 1016.74C653.815 1006.94 647.666 1000.21 640.589 994.463C627.215 983.605 613.648 972.851 599.888 962.202C593.756 957.455 589.508 953.287 587.145 949.697C583.553 944.22 581.752 937.723 581.744 930.205C581.68 788.664 581.664 643.854 581.696 495.775C581.708 482.006 580.949 469.176 576.331 456.683C573.615 449.351 570.078 443.777 565.722 439.962C559.485 434.517 551.387 427.908 541.429 420.133C525.323 407.557 509.839 395.325 494.978 383.439C488.335 378.126 479.377 372.621 470.926 376.813C464.717 379.897 458.171 386.788 458.316 394.052C458.396 398.26 460.044 401.726 463.259 404.448C469.962 410.127 477.81 416.379 486.804 423.205C499.294 432.674 512.021 442.235 524.985 451.889C531.688 456.888 538.391 462.586 541.465 469.862C543.41 474.472 544.383 480.283 544.383 487.294C544.375 625.792 544.371 764.265 544.371 902.715C544.371 925.604 540.368 954.913 557.56 972.791C562.463 977.891 568.664 983.452 576.162 989.476C591.932 1002.15 607.142 1013.93 621.794 1024.81C631.041 1031.68 643.688 1026.18 648.655 1016.74ZM736.217 958.829C752.697 955.335 766.345 943.035 771.034 927.17C772.288 922.897 772.939 916.689 772.987 908.545C773.759 779.998 774.531 650.142 775.302 518.977C775.374 506.336 771.589 496.414 763.945 489.21C743.772 470.2 723.361 455.354 702.713 444.673C693.491 439.89 680.326 438.553 671.79 445.395C652.613 460.751 643.025 480.893 643.025 505.822C643.025 621.351 643.004 737.469 642.964 854.178C642.964 861.575 642.578 868.996 642.783 876.356C642.928 881.689 643.832 887.929 645.496 895.077C647.971 905.678 652.557 915.123 659.252 923.411C666.638 932.567 675.805 940.003 686.751 945.722C692.434 948.685 697.843 951.476 702.979 954.094C713.861 959.644 724.941 961.222 736.217 958.829Z" fill="white"/>
<path d="M877.331 925.685C877.259 931.028 878.016 938.917 881.3 943.392C883.249 946.03 886.044 948.905 889.685 952.017C906.767 966.576 925.171 980.279 943.54 993.898C947.173 996.592 949.298 1000.54 949.916 1005.76C950.926 1014.38 942.698 1029.43 932.582 1027.89C929.249 1027.38 925.665 1025.12 922.958 1023.08C903.398 1008.34 884.216 993.653 865.41 979.025C859.636 974.538 855.285 970.344 852.358 966.444C842.109 952.777 840.497 935.757 840.497 919.099C840.473 773.046 840.741 639.655 841.303 518.926C841.359 506.631 841.319 494.468 841.183 482.437C841.122 477.033 840.81 470.785 839.474 465.562C837.397 457.416 833.68 450.319 828.323 444.272C825.099 440.637 819.518 436.178 811.578 430.894C795.531 420.207 779.067 408.217 762.186 394.924C757.675 391.378 752.61 386.529 750.974 381.306C748.352 372.862 751.215 366.203 757.254 360.534C761.452 356.614 766.54 355.902 771.689 358.664C775.947 360.956 780.334 363.739 784.849 367.012C807.135 383.151 828.431 398.607 848.737 413.38C852.586 416.178 856.115 419.182 859.323 422.39C871.232 434.272 876.874 453.813 877.102 470.073C878.369 560.212 879.043 629.471 879.123 677.849C879.243 761.068 878.437 843.093 877.331 925.685Z" fill="#9DE3D6"/>
<path d="M648.089 1016.86C643.128 1026.3 630.498 1031.79 621.264 1024.93C606.631 1014.06 591.441 1002.29 575.693 989.626C568.204 983.608 562.011 978.051 557.115 972.955C539.946 955.093 543.943 925.808 543.943 902.938C543.943 764.605 543.947 626.248 543.955 487.867C543.955 480.862 542.984 475.056 541.042 470.45C537.972 463.18 531.277 457.487 524.583 452.492C511.636 442.846 498.926 433.293 486.453 423.832C477.471 417.012 469.633 410.765 462.939 405.091C459.728 402.371 458.083 398.909 458.002 394.704C457.858 387.446 464.396 380.561 470.596 377.479C479.036 373.291 487.982 378.791 494.616 384.099C509.457 395.976 524.92 408.197 541.006 420.763C550.951 428.531 559.037 435.135 565.266 440.575C569.616 444.387 573.148 449.956 575.861 457.282C580.472 469.764 581.231 482.583 581.219 496.341C581.187 644.295 581.203 788.983 581.267 930.406C581.275 937.917 583.073 944.408 586.661 949.881C589.021 953.468 593.263 957.633 599.387 962.375C613.129 973.015 626.678 983.76 640.034 994.609C647.101 1000.35 653.242 1007.08 648.089 1016.86Z" fill="#9DE3D6"/>
<path d="M736.085 958.919C724.858 961.311 713.827 959.734 702.992 954.187C697.878 951.57 692.493 948.78 686.835 945.818C675.937 940.102 666.81 932.669 659.456 923.518C652.79 915.233 648.225 905.793 645.76 895.197C644.104 888.052 643.204 881.815 643.06 876.485C642.856 869.127 643.24 861.71 643.24 854.317C643.28 737.661 643.3 621.596 643.3 506.12C643.3 481.203 652.846 461.07 671.939 445.722C680.438 438.882 693.545 440.219 702.728 444.999C723.285 455.676 743.607 470.515 763.692 489.516C771.302 496.716 775.071 506.634 774.999 519.269C774.231 650.374 773.463 780.171 772.694 908.659C772.646 916.799 771.998 923.004 770.75 927.274C766.081 943.133 752.493 955.427 736.085 958.919Z" fill="#9DE3D6"/>
</g>
<defs>
<clipPath id="clip0_6_81">
<rect width="1411" height="1411" rx="705.5" fill="white"/>
</clipPath>
</defs>
</svg>
