<?xml version="1.0" encoding="UTF-8" standalone="no"?>
<!DOCTYPE svg PUBLIC "-//W3C//DTD SVG 1.1//EN" "http://www.w3.org/Graphics/SVG/1.1/DTD/svg11.dtd">
<svg xmlns="http://www.w3.org/2000/svg" version="1.1" viewBox="0.00 0.00 48.00 48.00">
<g stroke-width="2.00" fill="none" stroke-linecap="butt">
<path stroke="#5a7b75" vector-effect="non-scaling-stroke" d="
  M 27.20 38.22
  L 32.44 42.72
  Q 33.54 43.67 34.56 42.63
  L 39.38 37.71
  A 0.85 0.85 0.0 0 0 39.05 36.31
  C 36.79 35.51 36.11 34.09 36.09 31.92
  Q 36.04 22.14 36.09 13.06
  C 36.11 9.49 31.90 7.15 29.45 5.25
  Q 27.47 3.72 25.46 5.27
  Q 23.26 6.97 20.97 8.68
  A 0.87 0.86 -42.6 0 1 19.89 8.64
  L 15.50 4.83
  A 1.62 1.62 0.0 0 0 13.27 4.93
  L 8.49 9.89
  A 0.77 0.77 0.0 0 0 8.79 11.15
  C 10.50 11.76 12.25 13.07 12.25 15.06
  Q 12.24 25.85 12.28 36.10
  C 12.29 37.35 13.10 38.16 14.03 38.86
  Q 16.28 40.56 18.54 42.17
  A 2.60 2.59 43.0 0 0 21.71 42.06
  L 26.37 38.21
  Q 26.79 37.87 27.20 38.22"
/>
<path stroke="#5a7b75" vector-effect="non-scaling-stroke" d="
  M 32.90 35.76
  A 1.48 1.46 -71.2 0 1 32.34 34.60
  L 32.31 11.85
  Q 32.31 11.00 31.73 10.38
  Q 29.92 8.46 27.26 6.97
  A 0.69 0.69 0.0 0 0 26.28 7.33
  Q 26.02 8.06 26.63 8.55
  C 28.05 9.68 30.72 10.93 30.71 12.98
  Q 30.65 24.08 30.66 34.79
  C 30.66 36.95 33.26 38.26 34.79 39.38
  A 0.53 0.53 0.0 0 0 35.51 39.29
  L 35.74 39.01
  Q 36.24 38.40 35.63 37.92
  L 32.90 35.76"
/>
<path stroke="#5a7b75" vector-effect="non-scaling-stroke" d="
  M 17.94 34.79
  Q 17.96 24.05 17.97 13.18
  C 17.98 10.72 14.88 8.91 13.08 7.72
  A 0.59 0.58 52.8 0 0 12.59 7.65
  Q 12.10 7.81 12.05 8.13
  A 1.75 1.58 21.5 0 0 12.87 9.78
  Q 14.49 10.78 15.67 11.92
  A 1.59 1.59 0.0 0 1 16.16 13.07
  Q 16.18 24.34 16.19 35.33
  C 16.19 37.11 18.63 38.46 19.94 39.46
  A 0.72 0.72 0.0 0 0 20.84 39.44
  L 21.08 39.23
  Q 21.77 38.65 21.06 38.09
  L 18.63 36.20
  A 1.80 1.78 19.2 0 1 17.94 34.79"
/>
<path stroke="#5a7b75" vector-effect="non-scaling-stroke" d="
  M 20.91 32.67
  A 2.29 2.29 0.0 0 0 21.84 34.52
  L 23.59 35.81
  A 2.29 2.29 0.0 0 0 27.24 34.00
  L 27.46 14.88
  A 2.29 2.29 0.0 0 0 26.64 13.10
  L 24.73 11.50
  A 2.29 2.29 0.0 0 0 20.97 13.24
  L 20.91 32.67"
/>
</g>
<path fill="#a1e4d8" d="
  M 10.39 0.00
  L 37.72 0.00
  Q 46.27 1.80 48.00 10.39
  L 48.00 37.72
  Q 46.16 46.30 37.61 48.00
  L 10.28 48.00
  Q 1.74 46.18 0.00 37.61
  L 0.00 10.28
  Q 1.85 1.73 10.39 0.00
  Z
  M 27.20 38.22
  L 32.44 42.72
  Q 33.54 43.67 34.56 42.63
  L 39.38 37.71
  A 0.85 0.85 0.0 0 0 39.05 36.31
  C 36.79 35.51 36.11 34.09 36.09 31.92
  Q 36.04 22.14 36.09 13.06
  C 36.11 9.49 31.90 7.15 29.45 5.25
  Q 27.47 3.72 25.46 5.27
  Q 23.26 6.97 20.97 8.68
  A 0.87 0.86 -42.6 0 1 19.89 8.64
  L 15.50 4.83
  A 1.62 1.62 0.0 0 0 13.27 4.93
  L 8.49 9.89
  A 0.77 0.77 0.0 0 0 8.79 11.15
  C 10.50 11.76 12.25 13.07 12.25 15.06
  Q 12.24 25.85 12.28 36.10
  C 12.29 37.35 13.10 38.16 14.03 38.86
  Q 16.28 40.56 18.54 42.17
  A 2.60 2.59 43.0 0 0 21.71 42.06
  L 26.37 38.21
  Q 26.79 37.87 27.20 38.22
  Z"
/>
<path fill="#121111" d="
  M 26.37 38.21
  L 21.71 42.06
  A 2.60 2.59 43.0 0 1 18.54 42.17
  Q 16.28 40.56 14.03 38.86
  C 13.10 38.16 12.29 37.35 12.28 36.10
  Q 12.24 25.85 12.25 15.06
  C 12.25 13.07 10.50 11.76 8.79 11.15
  A 0.77 0.77 0.0 0 1 8.49 9.89
  L 13.27 4.93
  A 1.62 1.62 0.0 0 1 15.50 4.83
  L 19.89 8.64
  A 0.87 0.86 -42.6 0 0 20.97 8.68
  Q 23.26 6.97 25.46 5.27
  Q 27.47 3.72 29.45 5.25
  C 31.90 7.15 36.11 9.49 36.09 13.06
  Q 36.04 22.14 36.09 31.92
  C 36.11 34.09 36.79 35.51 39.05 36.31
  A 0.85 0.85 0.0 0 1 39.38 37.71
  L 34.56 42.63
  Q 33.54 43.67 32.44 42.72
  L 27.20 38.22
  Q 26.79 37.87 26.37 38.21
  Z
  M 32.90 35.76
  A 1.48 1.46 -71.2 0 1 32.34 34.60
  L 32.31 11.85
  Q 32.31 11.00 31.73 10.38
  Q 29.92 8.46 27.26 6.97
  A 0.69 0.69 0.0 0 0 26.28 7.33
  Q 26.02 8.06 26.63 8.55
  C 28.05 9.68 30.72 10.93 30.71 12.98
  Q 30.65 24.08 30.66 34.79
  C 30.66 36.95 33.26 38.26 34.79 39.38
  A 0.53 0.53 0.0 0 0 35.51 39.29
  L 35.74 39.01
  Q 36.24 38.40 35.63 37.92
  L 32.90 35.76
  Z
  M 17.94 34.79
  Q 17.96 24.05 17.97 13.18
  C 17.98 10.72 14.88 8.91 13.08 7.72
  A 0.59 0.58 52.8 0 0 12.59 7.65
  Q 12.10 7.81 12.05 8.13
  A 1.75 1.58 21.5 0 0 12.87 9.78
  Q 14.49 10.78 15.67 11.92
  A 1.59 1.59 0.0 0 1 16.16 13.07
  Q 16.18 24.34 16.19 35.33
  C 16.19 37.11 18.63 38.46 19.94 39.46
  A 0.72 0.72 0.0 0 0 20.84 39.44
  L 21.08 39.23
  Q 21.77 38.65 21.06 38.09
  L 18.63 36.20
  A 1.80 1.78 19.2 0 1 17.94 34.79
  Z
  M 20.91 32.67
  A 2.29 2.29 0.0 0 0 21.84 34.52
  L 23.59 35.81
  A 2.29 2.29 0.0 0 0 27.24 34.00
  L 27.46 14.88
  A 2.29 2.29 0.0 0 0 26.64 13.10
  L 24.73 11.50
  A 2.29 2.29 0.0 0 0 20.97 13.24
  L 20.91 32.67
  Z"
/>
<path fill="#a1e4d8" d="
  M 32.90 35.76
  L 35.63 37.92
  Q 36.24 38.40 35.74 39.01
  L 35.51 39.29
  A 0.53 0.53 0.0 0 1 34.79 39.38
  C 33.26 38.26 30.66 36.95 30.66 34.79
  Q 30.65 24.08 30.71 12.98
  C 30.72 10.93 28.05 9.68 26.63 8.55
  Q 26.02 8.06 26.28 7.33
  A 0.69 0.69 0.0 0 1 27.26 6.97
  Q 29.92 8.46 31.73 10.38
  Q 32.31 11.00 32.31 11.85
  L 32.34 34.60
  A 1.48 1.46 -71.2 0 0 32.90 35.76
  Z"
/>
<path fill="#a1e4d8" d="
  M 18.63 36.20
  L 21.06 38.09
  Q 21.77 38.65 21.08 39.23
  L 20.84 39.44
  A 0.72 0.72 0.0 0 1 19.94 39.46
  C 18.63 38.46 16.19 37.11 16.19 35.33
  Q 16.18 24.34 16.16 13.07
  A 1.59 1.59 0.0 0 0 15.67 11.92
  Q 14.49 10.78 12.87 9.78
  A 1.75 1.58 21.5 0 1 12.05 8.13
  Q 12.10 7.81 12.59 7.65
  A 0.59 0.58 52.8 0 1 13.08 7.72
  C 14.88 8.91 17.98 10.72 17.97 13.18
  Q 17.96 24.05 17.94 34.79
  A 1.80 1.78 19.2 0 0 18.63 36.20
  Z"
/>
<path fill="#a1e4d8" d="
  M 20.91 32.67
  L 20.97 13.24
  A 2.29 2.29 0.0 0 1 24.73 11.50
  L 26.64 13.10
  A 2.29 2.29 0.0 0 1 27.46 14.88
  L 27.24 34.00
  A 2.29 2.29 0.0 0 1 23.59 35.81
  L 21.84 34.52
  A 2.29 2.29 0.0 0 1 20.91 32.67
  Z"
/>
</svg>
